<svg id="Component_1_1" data-name="Component 1 – 1" xmlns="http://www.w3.org/2000/svg" xmlns:xlink="http://www.w3.org/1999/xlink" width="338.97" height="109" viewBox="0 0 338.97 109">
  <defs>
    <linearGradient id="linear-gradient" x1="0.5" x2="0.5" y2="1" gradientUnits="objectBoundingBox">
      <stop offset="0" stop-color="#ba3c8d"/>
      <stop offset="1" stop-color="#1b7d88"/>
    </linearGradient>
  </defs>
  <text id="CURRIE_S" data-name="CURRIE&apos;S" transform="translate(116.97 44)" fill="#f8f2f2" font-size="45" font-family="Montserrat-Regular, Montserrat"><tspan x="0" y="0">CURRIE&apos;S</tspan></text>
  <text id="PRINT_DESIGN" data-name="PRINT &amp; DESIGN" transform="translate(113.97 98)" fill="#f8f2f2" font-size="27" font-family="Montserrat-Regular, Montserrat"><tspan x="0" y="0">PRINT &amp; DESIGN</tspan></text>
  <g id="Subtraction_3" data-name="Subtraction 3" transform="translate(-0.03 8)" fill="url(#linear-gradient)">
    <path d="M 48.00601196289063 100.4995956420898 C 41.59843826293945 100.4995956420898 35.38153076171875 99.17900848388672 29.52801132202148 96.57450103759766 C 26.71593284606934 95.32280731201172 24.00214576721191 93.77281951904297 21.46211814880371 91.96760559082031 C 18.94574546813965 90.17829895019531 16.58035850524902 88.12480926513672 14.43175888061523 85.86423492431641 C 12.28066539764404 83.60047149658203 10.32855892181396 81.11083221435547 8.629718780517578 78.46453094482422 C 7.208526134490967 76.25167846679688 5.949174404144287 73.90304565429688 4.880359649658203 71.47315216064453 L 48.00601196289063 71.47315216064453 C 48.04078674316406 71.472900390625 48.07158660888672 71.47282409667969 48.10239791870117 71.47282409667969 L 48.19781112670898 71.47299194335938 L 48.2945442199707 71.47315216064453 C 59.73268508911133 71.47315216064453 69.06651306152344 61.72264099121094 69.31735229492188 49.63505935668945 L 95.49253845214844 49.63505935668945 C 95.49722290039063 49.92653656005859 95.49958801269531 50.21591949462891 95.49958801269531 50.49979400634766 C 95.49958801269531 57.25404739379883 94.24283599853516 63.80491256713867 91.76425170898438 69.97040557861328 C 90.57086181640625 72.93759155273438 89.09657287597656 75.79541778564453 87.38236236572266 78.46444702148438 C 85.68354797363281 81.11075592041016 83.73145294189453 83.60039520263672 81.58025360107422 85.86428833007813 C 79.43174743652344 88.12477874755859 77.06634521484375 90.17827606201172 74.54983520507813 91.96768951416016 C 72.00984954833984 93.77285003662109 69.29608154296875 95.32283020019531 66.48400115966797 96.57453918457031 C 60.63051986694336 99.17900848388672 54.41359710693359 100.4995956420898 48.00601196289063 100.4995956420898 Z M 27.27278518676758 48.63505935668945 L 0.5445845723152161 48.63505935668945 C 0.7548732757568359 42.54103851318359 1.999928951263428 36.62078857421875 4.247812271118164 31.02919387817383 C 5.441145420074463 28.06214141845703 6.915425300598145 25.20429992675781 8.629665374755859 22.53514099121094 C 10.32853221893311 19.8887939453125 12.28063869476318 17.39915466308594 14.43179893493652 15.1353006362915 C 16.58037185668945 12.8747673034668 18.94575881958008 10.82127380371094 21.46221160888672 9.031927108764648 C 24.00214576721191 7.226780891418457 26.71593284606934 5.676794052124023 29.5280647277832 4.425060749053955 C 35.38153076171875 1.820593953132629 41.59843826293945 0.5000073313713074 48.00601196289063 0.5000073313713074 C 54.41359710693359 0.5000073313713074 60.63051986694336 1.820593953132629 66.48406219482422 4.425100803375244 C 69.29611968994141 5.676780700683594 72.00989532470703 7.226780891418457 74.54993438720703 9.031993865966797 C 77.06629180908203 10.82128715515137 79.43169403076172 12.87478065490723 81.58030700683594 15.13535404205322 C 83.73145294189453 17.39920806884766 85.68354797363281 19.88884735107422 87.38230895996094 22.53504753112793 C 88.26180267333984 23.9045352935791 89.08447265625 25.3349723815918 89.833740234375 26.79699325561523 L 48.29537200927734 26.79699325561523 L 47.42783737182617 26.79699325561523 L 46.92783737182617 26.79699325561523 L 46.92783737182617 26.84345054626465 C 36.02118301391602 27.58660316467285 27.51086044311523 37.02099990844727 27.27278518676758 48.63505935668945 Z" stroke="none"/>
    <path d="M 48.00601196289063 99.99959564208984 C 54.34312057495117 99.99959564208984 60.49165344238281 98.69352722167969 66.28066253662109 96.11774444580078 C 69.06247711181641 94.87952423095703 71.74721527099609 93.34608459472656 74.26009368896484 91.56019592285156 C 76.75046539306641 89.78936767578125 79.09141540527344 87.75707244873047 81.21779632568359 85.51987457275391 C 83.34730529785156 83.27879333496094 85.27978515625 80.81415557861328 86.96165466308594 78.19424438476563 C 88.65892028808594 75.55160522460938 90.11867523193359 72.72191619873047 91.30034637451172 69.78389739990234 C 93.75498199462891 63.6779670715332 94.99958801269531 57.18986129760742 94.99958801269531 50.49979400634766 C 94.99958801269531 50.37914276123047 94.99915313720703 50.2574577331543 94.99829864501953 50.13505935668945 L 69.80217742919922 50.13505935668945 C 69.30701446533203 62.26584243774414 59.84956741333008 71.97315216064453 48.29372024536133 71.97315216064453 L 48.19690704345703 71.97299194335938 L 48.10239791870117 71.97282409667969 C 48.07290649414063 71.97282409667969 48.04341125488281 71.97288513183594 48.01389312744141 71.97312927246094 L 48.00996017456055 71.97315216064453 L 48.00601196289063 71.97315216064453 L 5.652905464172363 71.97315216064453 C 6.640987873077393 74.12996673583984 7.780511379241943 76.21703338623047 9.050478935241699 78.19441986083984 C 10.73231887817383 80.81423187255859 12.6648120880127 83.27887725830078 14.7941722869873 85.51976776123047 C 16.92069244384766 87.75710296630859 19.26162528991699 89.78939056396484 21.75177192687988 91.56005859375 C 24.26478576660156 93.34606170654297 26.94953155517578 94.87950134277344 29.73126602172852 96.11769104003906 C 35.5203971862793 98.69352722167969 41.66891860961914 99.99959564208984 48.00601196289063 99.99959564208984 M 26.78775596618652 48.13505935668945 C 27.25009155273438 36.65133666992188 35.6392822265625 27.3605842590332 46.42783737182617 26.38161277770996 L 46.42783737182617 26.29699325561523 L 47.42783737182617 26.29699325561523 L 48.29537200927734 26.29699325561523 L 89.00813293457031 26.29699325561523 C 88.37113952636719 25.1024227142334 87.68582153320313 23.93293952941895 86.9615478515625 22.80516815185547 C 85.27978515625 20.18544769287109 83.34730529785156 17.7208080291748 81.2178955078125 15.47982025146484 C 79.09136199951172 13.24248695373535 76.75042724609375 11.2101936340332 74.26027679443359 9.439540863037109 C 71.74725341796875 7.65352725982666 69.06253051757813 6.120100498199463 66.28079986572266 4.881914138793945 C 60.49165344238281 2.306073904037476 54.34312057495117 1.000007390975952 48.00601196289063 1.000007390975952 C 41.66891860961914 1.000007390975952 35.5203971862793 2.306073904037476 29.73139953613281 4.881860733032227 C 26.94953155517578 6.120100498199463 24.26478576660156 7.65354061126709 21.7519588470459 9.439407348632813 C 19.26163864135742 11.21018028259277 16.92070579528809 13.24247360229492 14.79426574707031 15.47972774505615 C 12.66478538513184 17.72075462341309 10.73229217529297 20.18539428710938 9.050372123718262 22.80532646179199 C 7.353078842163086 25.44810104370117 5.893332004547119 28.27780723571777 4.711718559265137 31.21570014953613 C 2.549278497695923 36.59477615356445 1.323917150497437 42.28160858154297 1.064675450325012 48.13505935668945 L 26.78775596618652 48.13505935668945 M 48.00601196289063 100.9995956420898 C 41.52795791625977 100.9995956420898 35.2426643371582 99.66447448730469 29.32474517822266 97.03132629394531 C 26.48238563537598 95.76615142822266 23.73955917358398 94.19960784912109 21.17246627807617 92.37516784667969 C 18.62994575500488 90.5672607421875 16.24009132385254 88.49256896972656 14.06934547424316 86.20870208740234 C 11.89645195007324 83.9219970703125 9.924745559692383 81.40734100341797 8.208958625793457 78.73464965820313 C 6.637452125549316 76.28774261474609 5.261852264404297 73.67638397216797 4.120385646820068 70.97315216064453 L 48.00601196289063 70.97315216064453 C 48.03815841674805 70.972900390625 48.07027816772461 70.97282409667969 48.10239791870117 70.97282409667969 L 48.19870376586914 70.97299194335938 L 48.29537200927734 70.97315216064453 C 59.61410522460938 70.97315216064453 68.82254791259766 61.1766357421875 68.82254791259766 49.13505935668945 L 95.982421875 49.13505935668945 C 95.99401092529297 49.60287475585938 95.99958801269531 50.06180572509766 95.99958801269531 50.49979400634766 C 95.99958801269531 57.31822204589844 94.73070526123047 63.93183517456055 92.22817230224609 70.15689849853516 C 91.02307891845703 73.15316772460938 89.53427886962891 76.03913879394531 87.80306243896484 78.73464965820313 C 86.08730316162109 81.40734100341797 84.1156005859375 83.92198181152344 81.94271850585938 86.20870208740234 C 79.77199554443359 88.4925537109375 77.38217163085938 90.56722259521484 74.83958435058594 92.37516784667969 C 72.27252960205078 94.19956970214844 69.52970886230469 95.76614379882813 66.68731689453125 97.03132629394531 C 60.76938629150391 99.66447448730469 54.48407745361328 100.9995956420898 48.00601196289063 100.9995956420898 Z M 27.76766586303711 49.1357536315918 L 27.76766586303711 49.13505935668945 L 0.02950544096529484 49.13505935668945 C 0.1876254379749298 42.80007553100586 1.450958728790283 36.6458625793457 3.783892154693604 30.84270095825195 C 4.988958835601807 27.84647369384766 6.477772235870361 24.96048736572266 8.208958625793457 22.26494026184082 C 9.924745559692383 19.59224700927734 11.89645195007324 17.07760810852051 14.06934547424316 14.79088687896729 C 16.24009132385254 12.50702095031738 18.62994575500488 10.43232727050781 21.17246627807617 8.624434471130371 C 23.73955917358398 6.799993991851807 26.48238563537598 5.233447551727295 29.32474517822266 3.968274116516113 C 35.2426643371582 1.335127353668213 41.52795791625977 7.339680905715795e-06 48.00601196289063 7.339680905715795e-06 C 54.48407745361328 7.339680905715795e-06 60.76938629150391 1.335127353668213 66.68731689453125 3.968274116516113 C 69.52970886230469 5.233460903167725 72.27252960205078 6.800020694732666 74.83958435058594 8.624434471130371 C 77.38217163085938 10.43238067626953 79.77199554443359 12.50706100463867 81.94271850585938 14.79088687896729 C 84.1156005859375 17.07762145996094 86.08730316162109 19.59226036071777 87.80306243896484 22.26494026184082 C 88.83674621582031 23.8745002746582 89.79274749755859 25.56751441955566 90.64453125 27.29699325561523 L 48.29537200927734 27.29699325561523 L 47.42783737182617 27.29699325561523 L 47.42783737182617 27.31606101989746 C 36.4031982421875 27.8067798614502 27.76766586303711 37.39055252075195 27.76766586303711 49.13505935668945 L 27.76766586303711 49.1357536315918 Z" stroke="none" fill="#707070"/>
  </g>
  <line id="Line_1" data-name="Line 1" x2="218" transform="translate(116.47 63.5)" fill="none" stroke="#b7b7b7" stroke-width="1"/>
</svg>
